NIRVANA - Nevermind - 20th Anniversary Edition - 2011. + DVD Live Paramount Theatre

Tracklist:

 CD 1: Remastered + B-Sides
 
 01. Smells Like Teen Spirit
 02. In Bloom
 03. Come As You Are
 04. Breed
 05. Lithium
 06. Polly
 07. Territorial Pissings
 08. Drain You
 09. Lounge Act
 10. Stay Away
 11. On A Plain
 12. Something In The Way
 13. Endless, Nameless
 14. Even In His Youth [B-Side]
 15. Aneurysm [B-Side]
 16. Curmudgeon [B-Side]
 17. D-7 [Live at the BBC]
 18. Been A Son [Live]
 19. School [Live]
 20. Drain You [Live]
 21. Sliver [Live]
 22. Polly [Live]

 CD 2: Smart Sessions
 
 23. In Bloom
 24. Immodium (Breed)
 25. Lithium
 26. Polly
 27. Pay To Play
 28. Here She Comes Now
 29. Dive
 30. Sappy
 31. Smells Like Teen Spirit
 32. Verse Chorus Verse
 33. Territorial Pissings
 34. Lounge Act
 35. Come as You Are
 36. Old Age
 37. Something in the Way
 38. On a Plain
 39. Drain You (Live)
 40. Something in the Way (Live)

 CD 3: The Devonshire Mixes
 
 41. Smells Like Teen Spirit
 42. In Bloom
 43. Come As You Are
 44. Breed
 45. Lithium
 46. Territorial Pissings
 47. Drain You
 48. Lounge Act
 49. Stay Away
 50. On A Plain
 51. Something In The Way

 CD 4: Live At The Paramount Theatre
 
 52. Jesus DoesnΓΓé¼Γäót Want Me For A Sunbeam
 53. Aneurysm
 54. Drain You
 55. School
 56. Floyd The Barber
 57. Smells Like Teen Spirit
 58. About A Girl
 59. Polly
 60. Breed
 61. Sliver
 62. Love Buzz
 63. Lithium
 64. Been A Son
 65. Negative Creep
 66. On A Plain
 67. Blew
 68. Rape Me
 69. Territorial Pissings
 70. Endless, Nameless


###################################################################################


                     NIRVANA - AT PARAMOUNT THEATRE



File Name                       NIRVANA - Live At The Paramount Theatre.720p.HD.x264.mkv
Format                           : Mkv
File size                        : 1.46 GiB
Duration                         : 1h 16mn
Overall bit rate                 : 2 734 Kbps
Encoded date                     : UTC 2011-09-24 01:14:13
Writing application              : mkvmerge v4.9.1 ('Ich will') built on Jul 11 2011 23:53:15
Writing library                  : libebml v1.2.1 + libmatroska v1.1.1

Video
ID                               : 1
Format                           : AVC
Format/Info                      : Advanced Video Codec
Format profile                   : High@L4.1
Format settings, CABAC           : Yes
Format settings, ReFrames        : 5 frames
Muxing mode                      : Header stripping
Codec ID                         : V_MPEG4/ISO/AVC
Duration                         : 1h 16mn
Bit rate                         : 2 296 Kbps
Width                            : 1 280 pixels
Height                           : 720 pixels
Display aspect ratio             : 16:9
Frame rate                       : 25.000 fps
Color space                      : YUV
Chroma subsampling               : 4:2:0
Bit depth                        : 8 bits
Scan type                        : Progressive
Bits/(Pixel*Frame)               : 0.100
Stream size                      : 1.23 GiB (84%)
Writing library                  : x264 core 118 r2085 8a62835
Encoding settings                : cabac=1 / ref=5 / deblock=1:0:0 / analyse=0x3:0x113 / me=umh / subme=8 / psy=1 / ps

Audio
ID                               : 2
Format                           : MPEG Audio
Format version                   : Version 1
Format profile                   : Layer 2
Muxing mode                      : Header stripping
Codec ID                         : A_MPEG/L2
Codec ID/Hint                    : MP2
Duration                         : 1h 16mn
Bit rate mode                    : Constant
Bit rate                         : 384 Kbps
Channel(s)                       : 2 channels
Sampling rate                    : 48.0 KHz
Compression mode                 : Lossy
Stream size                      : 210 MiB (14%)

############################### E N J O Y  #######################################
